# xmcd
#
# Track frame offsets: 
#        150
#        15066
#        21358
#        40717
#        59373
#        71374
#        84723
#        97784
#        114153
#        130695
#        159428
#        173469
#
# Disc length: 2487 seconds
#
# Revision: 0
# Processed by: cddbd v1.5.2PL0 Copyright (c) Steve Scherf et al.
# Submitted via: ExactAudioCopy v1.0b4
#
DISCID=7b09b50c
DTITLE=Various Artist - Blues From The Fields Into The Town (LP)
DYEAR=1900
DGENRE=Blues
TTITLE0=Leadbelly - Leadbelly - The Bourgeois Blues
TTITLE1=Leadbelly - Leadbelly - Whoe Back Buck
TTITLE2=Sonny Terry and Brownie McGhee - Sonny Terry and Brownie McGhee - 
TTITLE2=John Henry
TTITLE3=Sonny Terry and Brownie McGhee - Sonny Terry and Brownie McGhee - 
TTITLE3=Take This Hammer
TTITLE4=Luther Johnson - Luther Johnson - Snake
TTITLE5=Luther Johnson - Luther Johnson - Chicken Shack
TTITLE6=John Lee Hooker - John Lee Hooker - Hobo Blues
TTITLE7=John Lee Hooker - John Lee Hooker - C C Rider
TTITLE8=Blind John Davis - Blind John Davis - Everyday I Have The Blue
TTITLE8=s
TTITLE9=Memphis Slim - Memphis Slim - Bertha May
TTITLE10=Muddy Waters - Muddy Waters - Diggin' My Potatoes
TTITLE11=Muddy Waters - Muddy Waters - Watch Dog
EXTD=
EXTT0=
EXTT1=
EXTT2=
EXTT3=
EXTT4=
EXTT5=
EXTT6=
EXTT7=
EXTT8=
EXTT9=
EXTT10=
EXTT11=
PLAYORDER=
